<?xml version="1.0" standalone="no"?>
<!DOCTYPE svg PUBLIC "-//W3C//DTD SVG 20010904//EN"
 "http://www.w3.org/TR/2001/REC-SVG-20010904/DTD/svg10.dtd">
<svg version="1.0" xmlns="http://www.w3.org/2000/svg"
 width="512.000000pt" height="512.000000pt" viewBox="0 0 512.000000 512.000000"
 preserveAspectRatio="xMidYMid meet">
<metadata>
Created by potrace 1.11, written by Peter Selinger 2001-2013
</metadata>
<g transform="translate(0.000000,512.000000) scale(0.100000,-0.100000)"
fill="#000000" stroke="none">
<path d="M0 4915 l0 -205 615 0 615 0 0 205 0 205 -615 0 -615 0 0 -205z"/>
<path d="M4310 4915 l0 -205 205 0 205 0 0 205 0 205 -205 0 -205 0 0 -205z"/>
<path d="M2459 4705 c-60 -19 -42 -4 -969 -825 -91 -80 -218 -192 -285 -250
-66 -57 -181 -158 -255 -225 -74 -66 -169 -149 -210 -185 -263 -228 -503 -447
-515 -471 -21 -40 -19 -92 6 -123 43 -54 55 -56 358 -56 l281 0 2 -992 3 -993
28 -47 c31 -53 79 -94 134 -114 31 -11 308 -13 1523 -13 l1485 -1 50 24 c59
28 107 76 132 131 17 38 18 101 21 1022 l2 982 290 3 c275 3 290 4 317 24 15
11 34 39 42 61 24 68 -3 105 -229 305 -108 95 -227 199 -265 232 -39 32 -89
76 -112 97 l-42 39 -3 342 c-4 457 15 431 -302 426 l-198 -3 -34 -37 c-33 -37
-34 -40 -34 -123 0 -54 -4 -85 -11 -85 -6 0 -45 31 -87 69 -88 78 -422 373
-679 599 -96 83 -193 162 -216 174 -54 27 -164 34 -228 13z m138 -124 c31 -9
197 -149 553 -466 352 -313 547 -483 569 -494 33 -18 77 2 90 41 6 17 11 91
11 164 l0 134 145 0 145 0 0 -344 0 -344 173 -155 c94 -85 236 -209 315 -277
78 -67 142 -127 142 -131 0 -5 -134 -9 -297 -9 -262 0 -299 -2 -315 -17 -17
-15 -18 -60 -18 -1027 0 -1130 4 -1061 -70 -1098 -33 -17 -124 -18 -1478 -18
-1549 0 -1481 -2 -1527 50 -20 22 -20 40 -25 1052 -5 1005 -5 1030 -24 1044
-16 11 -75 14 -311 14 -161 0 -294 3 -298 6 -3 3 101 99 231 214 130 114 280
246 332 292 52 46 320 282 594 524 274 241 593 522 708 624 198 175 272 230
308 230 8 0 30 -4 47 -9z"/>
<path d="M2333 3567 c-34 -7 -64 -14 -67 -17 -3 -3 1 -30 7 -60 14 -63 1 -60
180 -45 l97 8 0 -1165 c0 -1157 0 -1166 -20 -1171 -17 -4 -20 -14 -20 -66 l0
-61 88 0 c225 0 471 77 677 210 108 71 297 261 367 370 75 115 134 252 171
390 29 108 30 126 31 310 1 267 -22 376 -129 596 -67 138 -146 245 -261 353
-188 176 -357 269 -608 333 -99 25 -413 34 -513 15z m1200 -926 c14 -11 17
-35 17 -147 l0 -134 -60 0 -60 0 0 35 c0 19 -3 35 -7 35 -4 0 -28 -21 -54 -46
l-47 -46 21 -47 c45 -98 14 -237 -69 -310 -65 -57 -112 -76 -194 -76 -65 0
-82 4 -129 30 -204 113 -203 398 3 508 55 29 193 31 245 4 l33 -19 49 48 c27
27 49 52 49 56 0 4 -17 8 -37 10 -37 3 -38 4 -41 47 -5 74 -8 73 136 69 91 -2
134 -7 145 -17z"/>
<path d="M1915 3419 c-73 -43 -165 -109 -165 -119 0 -14 65 -90 77 -90 6 0 40
20 75 44 35 24 82 53 106 65 23 12 42 26 42 32 0 16 -50 109 -58 108 -4 0 -38
-18 -77 -40z"/>
<path d="M1484 3023 c-68 -103 -94 -148 -94 -162 0 -11 109 -66 115 -59 1 2
10 19 20 38 10 19 40 67 66 107 27 40 49 76 49 82 0 13 -75 71 -92 71 -7 0
-36 -35 -64 -77z"/>
<path d="M1959 2716 c-156 -56 -232 -210 -184 -374 20 -67 99 -154 160 -178
39 -14 45 -21 45 -45 0 -26 -3 -29 -34 -29 -46 0 -58 -18 -54 -87 l3 -58 42
-3 42 -3 3 -52 3 -52 70 0 70 0 3 52 3 52 42 3 42 3 3 58 c4 69 -8 87 -54 87
-30 0 -34 3 -34 28 0 23 7 30 45 45 99 41 177 157 178 265 1 122 -57 218 -165
271 -50 25 -73 31 -127 31 -36 -1 -82 -7 -102 -14z"/>
<path d="M1290 2598 c0 -2 -7 -41 -15 -88 -8 -47 -15 -113 -15 -148 l0 -63 63
3 62 3 7 86 c4 48 12 105 17 128 10 46 5 52 -54 65 -16 4 -38 9 -47 12 -10 3
-18 4 -18 2z"/>
<path d="M1322 2038 c-42 -9 -43 -10 -37 -41 10 -49 75 -241 85 -251 7 -7 120
36 120 47 0 2 -11 30 -24 63 -13 32 -31 89 -41 127 -20 74 -20 74 -103 55z"/>
<path d="M1567 1545 c-26 -20 -47 -40 -47 -45 0 -19 183 -210 201 -210 10 0
80 83 77 91 -2 3 -44 50 -94 103 l-91 96 -46 -35z"/>
<path d="M1982 1195 c-12 -25 -22 -52 -22 -60 0 -14 177 -88 242 -100 36 -7
37 -6 47 32 23 84 25 80 -72 113 -48 17 -101 37 -117 45 -44 23 -54 19 -78
-30z"/>
<path d="M0 492 l0 -492 490 0 c270 0 490 3 490 8 0 7 -879 886 -947 947 l-33
29 0 -492z"/>
<path d="M4710 625 l0 -205 -205 0 -205 0 0 -210 0 -210 408 2 407 3 3 413 2
412 -205 0 -205 0 0 -205z"/>
</g>
</svg>
